<?xml version="1.0" encoding="utf-8"?>
<!-- Generator: Adobe Illustrator 16.0.0, SVG Export Plug-In . SVG Version: 6.00 Build 0)  -->
<!DOCTYPE svg PUBLIC "-//W3C//DTD SVG 1.1//EN" "http://www.w3.org/Graphics/SVG/1.1/DTD/svg11.dtd">
<svg version="1.1" id="Ebene_1" xmlns="http://www.w3.org/2000/svg" xmlns:xlink="http://www.w3.org/1999/xlink" x="0px" y="0px"
	 width="267px" height="91px" viewBox="0 0 267 91" enable-background="new 0 0 267 91" xml:space="preserve">
<g>
	<path fill="#FFFFFF" d="M261.749,29.77h-6.983h-2.829l-0.72,2.738c-0.184,0.699-0.466,1.832-0.802,3.217
		c-0.334-1.384-0.604-2.5-0.767-3.162l-0.685-2.792h-2.877h-7.24h-4.771c-1.102-0.371-2.338-0.564-3.705-0.564
		c-2.537,0-4.557,0.864-6.104,1.934c-1.406-1.15-3.402-1.934-6.221-1.934c-1.341,0-2.524,0.242-3.564,0.625l-0.006-0.061h-3.364
		h-6.106h-3.671v3.669v0.501c-2.345-3.051-5.884-4.735-10.401-4.735c-4.196,0-8.831,1.936-11.655,6.784
		c-1.194-3.746-3.896-6.784-9.557-6.784c-1.385,0-2.626,0.24-3.727,0.617v-7.938v-4.252l-4.204,0.623l-6.934,1.027l-3.132,0.464
		v3.166v7.158c-1.375-0.398-3.518-0.864-6.086-0.864c-5.96,0-9.341,2.652-11.128,4.876c-0.108,0.133-0.2,0.284-0.303,0.422v-12.62
		v-4.252l-4.207,0.623l-6.933,1.027l-3.131,0.464v3.166v20.874l-5.118-18.709l-0.739-2.701h-2.8h-8.627h-2.789l-0.745,2.686
		l-3.264,11.737L80.915,21.597c-0.554-0.561-1.298-0.868-2.065-0.872c-0.253-0.001-0.507,0.03-0.758,0.096l-18.554,4.875
		c-0.141-0.36-0.354-0.696-0.634-0.981L39.437,4.906c-0.555-0.562-1.299-0.868-2.067-0.873c-0.252-0.002-0.507,0.03-0.759,0.096
		L9.797,11.173C8.79,11.438,8,12.22,7.724,13.227L0.372,40.078c-0.274,1.002,0.006,2.077,0.735,2.818L20.6,62.705
		c0.553,0.561,1.297,0.866,2.064,0.871c0.252,0.001,0.507-0.029,0.758-0.097l9.259-2.43l-3.051,11.1
		c-0.275,1.006,0.005,2.079,0.735,2.821l10.94,11.122c0.552,0.562,1.298,0.869,2.064,0.874c0.253,0.001,0.507-0.029,0.758-0.096
		l15.08-3.953c1.01-0.265,1.803-1.048,2.077-2.055l3.536-12.978l0.316,0.324c0.553,0.561,1.298,0.866,2.064,0.872
		c0.254,0.001,0.508-0.031,0.761-0.098l20.839-5.48h4.457h7.189h2.829l0.72-2.733l0.82-3.121h3.794l0.822,3.122l0.718,2.732h2.827
		h6.961h0.587h3.082h1.725h5.208h3.669v-3.668v-0.639c0.07,0.092,0.133,0.194,0.207,0.282c1.729,2.119,5.001,4.643,10.76,4.643
		c2.735,0,4.945-0.705,6.55-1.415v0.797h3.669h6.935h3.666h3.524h6.931h3.669v-3.668v-0.715c2.392,3.007,5.737,4.495,9.134,4.885
		c-1.602,1.106-3.095,2.759-4.467,4.952c-2.161,3.454-3.211,6.441-3.211,9.137c0,2.014,0.524,3.774,1.562,5.236
		c1.388,1.967,3.57,3.053,6.143,3.053c0.226,0,0.384-0.016,0.896-0.073c0.142-0.014,0.243-0.025,0.312-0.03
		c1.014-0.043,2.078-0.446,4.047-1.521c0.468-0.248,0.973-0.622,2.077-1.656c0.966,3.029,2.97,3.501,4.119,3.501
		c2.479,0,4.354-1.665,4.575-4.057c0.007-0.045,0.041-0.233,0.189-0.649c0.774,1.335,2.059,2.415,4.188,2.415
		c2.658,0,4.791-2.088,6.555-4.378c0.065,0.155,0.132,0.312,0.203,0.47c1.794,4.082,4.646,4.694,6.185,4.694
		c0.76,0,1.52-0.168,2.307-0.503c0.228,0.213,0.463,0.419,0.726,0.605c1.188,0.852,2.567,1.302,3.993,1.302
		c2.273,0,4.515-0.764,6.661-2.274c3.357-2.369,4.061-5.111,4.061-6.996c0-2.266-1.092-4.215-3.014-5.406
		c0.853-0.21,1.582-0.677,2.142-1.312c0.918,1.27,1.794,2.475,2.303,3.129l1.917,2.468l2.74-1.503l0.268-0.144
		c2.382-1.291,7.335-3.979,9.847-12.048l8.677-27.888l1.479-4.759H261.749z"/>
	<g>
		<g>
			<path fill="#333A40" d="M102.705,26.102h8.626l9.245,33.793h-7.549l-1.541-5.856h-9.448l-1.541,5.856h-7.189L102.705,26.102z
				 M103.116,49.11h7.291c-1.282-5.857-2.925-12.841-3.594-16.487C106.094,36.27,104.451,43.253,103.116,49.11z"/>
		</g>
		<g>
			<path fill="#333A40" d="M130.588,59.896h-6.931V22.969l6.931-1.026V59.896z"/>
		</g>
		<g>
			<path fill="#333A40" d="M152.775,58.148c-0.977,0.409-3.545,2.364-7.549,2.364c-6.883,0-10.682-4.314-10.682-13.405
				c0-9.554,3.953-14.176,11.143-14.176c2.878,0,5.239,0.719,6.163,1.079l-0.822,5.083c-0.666-0.256-2.517-0.822-4.365-0.822
				c-3.388,0-4.981,2.62-4.981,8.579c0,6.061,1.747,8.267,4.775,8.267c2.108,0,4.008-1.128,4.726-1.386L152.775,58.148z"/>
		</g>
		<g>
			<path fill="#333A40" d="M155.446,22.969l6.931-1.026v14.943h0.105c0.717-0.667,3.079-3.954,7.291-3.954
				c4.826,0,6.728,2.979,6.728,9.193v17.771h-6.934V43.819c0-3.801-0.616-4.879-2.721-4.879c-2.107,0-3.853,2.157-4.47,2.876v18.079
				h-6.931V22.969z"/>
		</g>
		<g>
			<path fill="#333A40" d="M200.176,57.995c-0.771,0.514-3.956,2.518-9.038,2.518c-5.957,0-10.785-3.852-10.785-13.097
				c0-9.811,4.775-14.484,10.63-14.484c5.854,0,9.963,3.646,9.963,12.273c0,1.851-0.257,3.339-0.309,3.597h-13.401
				c0.05,4.571,2.311,6.469,5.235,6.469c2.773,0,5.086-1.231,6.319-1.795L200.176,57.995z M187.235,44.486h7.034
				c0-5.237-1.437-6.624-3.338-6.624C189.133,37.862,187.285,39.505,187.235,44.486z"/>
		</g>
		<g>
			<path fill="#333A40" d="M205.055,33.497h6.107l0.31,3.543c0.772-0.925,2.722-4.109,6.624-4.109c2.98,0,4.828,1.027,5.598,4.057
				c0.874-1.181,3.03-4.057,6.728-4.057c4.468,0,6.37,2.517,6.37,9.141v17.823h-6.883V42.637c0-2.311-0.358-3.697-2.158-3.697
				c-1.797,0-3.183,2.054-3.543,2.876v18.079h-6.625V42.637c0-2.311-0.358-3.697-2.157-3.697c-1.796,0-3.131,2.003-3.542,2.876
				v18.079h-6.828V33.497z"/>
		</g>
		<g>
			<path fill="#333A40" d="M261.799,33.497l-8.679,27.887c-2.156,6.934-6.213,8.886-8.37,10.067
				c-0.718-0.926-2.414-3.287-3.081-4.213c0.771-0.668,4.467-2.566,5.546-6.778l-8.318-26.963h7.239
				c0.771,3.132,3.545,14.688,4.314,19.002c0.821-4.417,3.545-15.87,4.367-19.002H261.799z"/>
		</g>
	</g>
	<g>
		<path fill="#333A40" d="M193.986,68.011c0.319,0,0.667,0.193,1.031,0.578c0.897,0.95,1.506,1.125,2.353,0.546
			c0.367-0.254,0.548-0.633,0.508-1.05c-0.054-0.799-0.66-1.456-1.799-1.957c-0.818-0.364-1.438-0.541-1.896-0.541
			c-2.436,0.013-4.74,1.736-6.854,5.116c-1.807,2.889-2.722,5.389-2.722,7.435c0,1.336,0.326,2.474,0.969,3.379
			c0.796,1.128,1.983,1.701,3.526,1.701c0.029,0,0.213-0.016,0.555-0.054c0.268-0.028,0.427-0.045,0.47-0.046
			c0.306,0,0.867-0.139,2.703-1.14c0.226-0.117,0.704-0.468,2.439-2.166c1.932-1.896,2.285-2.549,2.366-2.884
			c0.084-0.275,0.01-0.583-0.22-0.921c-0.238-0.344-0.523-0.518-0.838-0.518c-0.18,0-0.507,0.061-0.708,0.429
			c-0.872,1.35-1.932,2.444-3.146,3.266c-1.295,0.868-2.615,1.308-3.923,1.308c-0.778,0-1.671-0.234-1.671-2.074
			c0-1.427,0.742-3.47,2.211-6.08C190.961,69.466,192.523,68.011,193.986,68.011z"/>
		<path fill="#333A40" d="M224.236,78.564c-0.354,0-0.695,0.247-1.103,0.798c-0.301,0.408-0.535,0.409-0.654,0.408
			c-0.259-0.01-1.135-0.388-1.441-4.977l-0.305-4.414c-0.25-1.795-0.915-2.704-1.979-2.704c-0.68,0-1.78,0.545-4.245,4.804
			c-0.665,1.128-1.493,2.374-2.457,3.695c-0.936,1.256-1.511,1.87-1.856,2.171c-0.082-0.436-0.124-0.979-0.124-1.635
			c0-0.533,0.027-1.253,0.081-2.143c0.055-0.995,0.089-1.633,0.101-1.925c0.039-2.004-0.251-3.293-0.885-3.941
			c-0.315-0.32-0.704-0.483-1.157-0.483c-1.114,0-2.453,1.26-4.214,3.968c-0.44,0.683-1.144,1.88-2.093,3.565
			c0.149-2.311,0.529-4.59,1.141-6.795c0.071-0.267,0.054-0.669-0.433-1.089c-0.33-0.287-0.703-0.436-1.107-0.436
			c-0.863,0-1.277,1.173-1.539,2.19c-0.313,1.16-0.526,2.592-0.635,4.245c-0.119,1.754-0.181,3.891-0.181,6.36
			c0,0.357,0.075,0.868,0.233,1.577c0.203,0.807,0.5,1.631,1.17,1.631c0.813,0,1.32-0.423,1.381-1.157
			c0.113-1.165,1.095-3.422,2.918-6.71c1.54-2.804,2.334-3.953,2.701-4.42c0,0.089,0,0.194-0.005,0.32
			c-0.15,3.265-0.211,5.245-0.182,5.886c0.105,2.516,0.823,3.792,2.139,3.792c1.21,0,2.685-1.261,4.636-3.968
			c0.255-0.355,2.324-3.588,3.537-5.488c0.234-0.37,0.414-0.648,0.545-0.854c0.012,0.086,0.021,0.184,0.031,0.293
			c0.052,0.55,0.064,1.329,0.038,2.328v2.002c0.01,1.115,0.313,2.354,0.903,3.685c0.812,1.851,1.907,2.786,3.252,2.786
			c0.459,0,0.972-0.164,1.575-0.502c0.819-0.475,1.234-1.083,1.234-1.804C225.258,78.971,224.865,78.564,224.236,78.564z"/>
		<path fill="#333A40" d="M230.864,73.662c-2.19,0-2.468-0.365-2.475-0.365c0-0.874,0.821-2.04,2.372-3.37
			c1.809-1.556,2.828-1.882,3.366-1.882c0.036,0,0.073,0.003,0.123,0.006c0.072,0.004,0.298,0.046,0.826,0.328
			c0.721,0.386,0.872,0.415,1.009,0.415c0.727,0,1.163-0.494,1.163-1.324c0-0.631-0.425-1.187-1.268-1.647
			c-0.651-0.35-1.201-0.517-1.684-0.517c-1.572,0-3.401,1.039-5.592,3.175c-2.195,2.138-3.262,3.892-3.262,5.361
			c0,0.738,0.509,1.313,1.518,1.711c0.65,0.258,1.33,0.402,2.023,0.432l3.86,0.141c0.473,0.023,0.891,0.157,1.28,0.407
			c0.556,0.367,0.619,0.737,0.619,0.983c0,0.86-1.161,1.629-2.133,2.122c-1.358,0.688-2.57,1.035-3.598,1.035
			c-0.625,0-0.625-0.247-0.625-0.444c0-0.104,0.017-0.197,0.054-0.283c0.126-0.3,0.213-0.694,0.266-1.218l0.035-0.339l-0.312-0.132
			c-0.656-0.279-1.311,0.032-1.813,0.841c-0.316,0.495-0.47,0.93-0.47,1.33c0,0.904,0.4,1.646,1.192,2.199
			c0.649,0.474,1.368,0.712,2.134,0.712c1.598,0,3.218-0.569,4.811-1.693c1.794-1.263,2.701-2.733,2.701-4.371
			C236.986,74.877,234.927,73.662,230.864,73.662z"/>
	</g>
	<g>
		<polygon fill-rule="evenodd" clip-rule="evenodd" fill="#C5E1F2" points="47.632,51.588 23.382,57.956 5.754,40.043 
			12.401,15.762 36.65,9.393 54.254,27.305 		"/>
		<polygon fill-rule="evenodd" clip-rule="evenodd" fill="#333A40" points="57.42,79.029 43.781,82.603 33.888,72.543 37.632,58.91 
			51.244,55.334 61.138,65.395 		"/>
		<polygon fill-rule="evenodd" clip-rule="evenodd" fill="#86AA59" points="86.963,59.079 67.775,64.128 53.829,49.94 
			59.066,30.726 78.277,25.679 92.223,39.865 		"/>
	</g>
</g>
</svg>
